G04 #@! TF.GenerationSoftware,KiCad,Pcbnew,(6.0.5)*
G04 #@! TF.CreationDate,2022-08-24T21:54:21+01:00*
G04 #@! TF.ProjectId,iel-adapter,69656c2d-6164-4617-9074-65722e6b6963,rev?*
G04 #@! TF.SameCoordinates,Original*
G04 #@! TF.FileFunction,Copper,L1,Top*
G04 #@! TF.FilePolarity,Positive*
%FSLAX46Y46*%
G04 Gerber Fmt 4.6, Leading zero omitted, Abs format (unit mm)*
G04 Created by KiCad (PCBNEW (6.0.5)) date 2022-08-24 21:54:21*
%MOMM*%
%LPD*%
G01*
G04 APERTURE LIST*
G04 #@! TA.AperFunction,ComponentPad*
%ADD10R,1.700000X1.700000*%
G04 #@! TD*
G04 #@! TA.AperFunction,ComponentPad*
%ADD11O,1.700000X1.700000*%
G04 #@! TD*
G04 #@! TA.AperFunction,ComponentPad*
%ADD12C,2.500000*%
G04 #@! TD*
G04 #@! TA.AperFunction,ComponentPad*
%ADD13C,3.000000*%
G04 #@! TD*
G04 #@! TA.AperFunction,ViaPad*
%ADD14C,0.800000*%
G04 #@! TD*
G04 #@! TA.AperFunction,Conductor*
%ADD15C,0.250000*%
G04 #@! TD*
G04 APERTURE END LIST*
D10*
X161725000Y-52300000D03*
D11*
X164265000Y-52300000D03*
X166805000Y-52300000D03*
X169345000Y-52300000D03*
X171885000Y-52300000D03*
D10*
X161725000Y-102600000D03*
D11*
X164265000Y-102600000D03*
X166805000Y-102600000D03*
X169345000Y-102600000D03*
X171885000Y-102600000D03*
D12*
X175000000Y-58200000D03*
X158600000Y-95200000D03*
D13*
X173500000Y-65700000D03*
X166800000Y-65700000D03*
X160100000Y-65700000D03*
X160100000Y-73000000D03*
X160100000Y-80300000D03*
X160100000Y-87700000D03*
X166100000Y-87700000D03*
X172100000Y-87700000D03*
X173500000Y-80300000D03*
X173500000Y-73000000D03*
D14*
X176400000Y-99600000D03*
X166400000Y-98000000D03*
X161400000Y-98000000D03*
X162900000Y-95200000D03*
X169300000Y-96300000D03*
X161900000Y-91400000D03*
X172000000Y-94100000D03*
D15*
X166100000Y-72000000D02*
X163900000Y-69800000D01*
X164265000Y-54935000D02*
X164265000Y-52300000D01*
X166100000Y-87700000D02*
X166100000Y-72000000D01*
X163900000Y-55300000D02*
X164265000Y-54935000D01*
X163900000Y-69800000D02*
X163900000Y-55300000D01*
X166805000Y-54395000D02*
X166805000Y-52300000D01*
X167000000Y-54500000D02*
X166700000Y-54500000D01*
X168900000Y-56400000D02*
X167000000Y-54500000D01*
X168900000Y-84500000D02*
X168900000Y-56400000D01*
X166700000Y-54500000D02*
X166805000Y-54395000D01*
X172100000Y-87700000D02*
X168900000Y-84500000D01*
X169800000Y-52755000D02*
X169345000Y-52300000D01*
X169800000Y-76600000D02*
X169800000Y-52755000D01*
X173500000Y-80300000D02*
X169800000Y-76600000D01*
X171000000Y-56300000D02*
X171885000Y-55415000D01*
X173500000Y-73000000D02*
X171000000Y-70500000D01*
X171885000Y-55415000D02*
X171885000Y-52300000D01*
X171000000Y-70500000D02*
X171000000Y-56300000D01*
X176400000Y-68600000D02*
X176400000Y-99600000D01*
X173500000Y-65700000D02*
X176400000Y-68600000D01*
X164265000Y-93335000D02*
X168500000Y-89100000D01*
X164265000Y-102600000D02*
X164265000Y-93335000D01*
X168500000Y-89100000D02*
X168500000Y-85800000D01*
X168500000Y-85800000D02*
X166800000Y-84100000D01*
X166800000Y-84100000D02*
X166800000Y-65700000D01*
X166805000Y-102600000D02*
X166805000Y-98405000D01*
X161400000Y-98000000D02*
X161400000Y-93900000D01*
X161400000Y-93900000D02*
X157500000Y-90000000D01*
X157500000Y-90000000D02*
X157500000Y-68300000D01*
X157500000Y-68300000D02*
X160100000Y-65700000D01*
X166805000Y-98405000D02*
X166400000Y-98000000D01*
X162900000Y-95200000D02*
X162900000Y-75800000D01*
X169345000Y-96345000D02*
X169300000Y-96300000D01*
X169345000Y-102600000D02*
X169345000Y-96345000D01*
X162900000Y-75800000D02*
X160100000Y-73000000D01*
X161924511Y-82124511D02*
X160100000Y-80300000D01*
X161924511Y-91375489D02*
X161924511Y-82124511D01*
X161900000Y-91400000D02*
X161924511Y-91375489D01*
X171885000Y-94215000D02*
X172000000Y-94100000D01*
X171885000Y-102600000D02*
X171885000Y-94215000D01*
M02*
