%FSLAX45Y45*%
G04 Gerber Fmt 4.5, Leading zero omitted, Abs format (unit mm)*
G04 Created by KiCad (PCBNEW (6.0.5)) date 2022-08-24 21:54:44*
%MOMM*%
%LPD*%
G01*
G04 APERTURE LIST*
%TA.AperFunction,Profile*%
%ADD10C,0.200000*%
%TD*%
%ADD11C,0.200000*%
%ADD12C,0.040000*%
%ADD13C,0.100000*%
%ADD14C,0.180000*%
%ADD15C,0.250000*%
G04 APERTURE END LIST*
D10*
X15580000Y-5000000D02*
X17780000Y-5000000D01*
X17780000Y-5000000D02*
X17780000Y-10500000D01*
X17780000Y-10500000D02*
X15580000Y-10500000D01*
X15580000Y-10500000D02*
X15580000Y-5000000D01*
D11*
D12*
X16120000Y-9780000D02*
X16160000Y-9820000D01*
X16160000Y-9780000D02*
X16120000Y-9820000D01*
X16170000Y-9120000D02*
X16210000Y-9160000D01*
X16210000Y-9120000D02*
X16170000Y-9160000D01*
X16270000Y-9500000D02*
X16310000Y-9540000D01*
X16310000Y-9500000D02*
X16270000Y-9540000D01*
X16620000Y-9780000D02*
X16660000Y-9820000D01*
X16660000Y-9780000D02*
X16620000Y-9820000D01*
X16910000Y-9610000D02*
X16950000Y-9650000D01*
X16950000Y-9610000D02*
X16910000Y-9650000D01*
X17180000Y-9390000D02*
X17220000Y-9430000D01*
X17220000Y-9390000D02*
X17180000Y-9430000D01*
X17620000Y-9940000D02*
X17660000Y-9980000D01*
X17660000Y-9940000D02*
X17620000Y-9980000D01*
D13*
X16222500Y-5230000D02*
G75*
G03*
X16222500Y-5230000I-50000J0D01*
G01*
X16222500Y-10260000D02*
G75*
G03*
X16222500Y-10260000I-50000J0D01*
G01*
X16476500Y-5230000D02*
G75*
G03*
X16476500Y-5230000I-50000J0D01*
G01*
X16476500Y-10260000D02*
G75*
G03*
X16476500Y-10260000I-50000J0D01*
G01*
X16730500Y-5230000D02*
G75*
G03*
X16730500Y-5230000I-50000J0D01*
G01*
X16730500Y-10260000D02*
G75*
G03*
X16730500Y-10260000I-50000J0D01*
G01*
X16984500Y-5230000D02*
G75*
G03*
X16984500Y-5230000I-50000J0D01*
G01*
X16984500Y-10260000D02*
G75*
G03*
X16984500Y-10260000I-50000J0D01*
G01*
X17238500Y-5230000D02*
G75*
G03*
X17238500Y-5230000I-50000J0D01*
G01*
X17238500Y-10260000D02*
G75*
G03*
X17238500Y-10260000I-50000J0D01*
G01*
D14*
X16010000Y-6480000D02*
X16010000Y-6660000D01*
X15920000Y-6570000D02*
X16100000Y-6570000D01*
X16010000Y-7210000D02*
X16010000Y-7390000D01*
X15920000Y-7300000D02*
X16100000Y-7300000D01*
X16010000Y-7940000D02*
X16010000Y-8120000D01*
X15920000Y-8030000D02*
X16100000Y-8030000D01*
X16010000Y-8680000D02*
X16010000Y-8860000D01*
X15920000Y-8770000D02*
X16100000Y-8770000D01*
X16610000Y-8680000D02*
X16610000Y-8860000D01*
X16520000Y-8770000D02*
X16700000Y-8770000D01*
X16680000Y-6480000D02*
X16680000Y-6660000D01*
X16590000Y-6570000D02*
X16770000Y-6570000D01*
X17210000Y-8680000D02*
X17210000Y-8860000D01*
X17120000Y-8770000D02*
X17300000Y-8770000D01*
X17350000Y-6480000D02*
X17350000Y-6660000D01*
X17260000Y-6570000D02*
X17440000Y-6570000D01*
X17350000Y-7210000D02*
X17350000Y-7390000D01*
X17260000Y-7300000D02*
X17440000Y-7300000D01*
X17350000Y-7940000D02*
X17350000Y-8120000D01*
X17260000Y-8030000D02*
X17440000Y-8030000D01*
D15*
X15948389Y-9608389D02*
X15948389Y-9431611D01*
X15771611Y-9431611D01*
X15771611Y-9608389D01*
X15948389Y-9608389D01*
X17588389Y-5908389D02*
X17588389Y-5731611D01*
X17411611Y-5731611D01*
X17411611Y-5908389D01*
X17588389Y-5908389D01*
D11*
X15827619Y-10820476D02*
X15827619Y-10620476D01*
X15875238Y-10620476D01*
X15903809Y-10630000D01*
X15922857Y-10649048D01*
X15932381Y-10668095D01*
X15941905Y-10706190D01*
X15941905Y-10734762D01*
X15932381Y-10772857D01*
X15922857Y-10791905D01*
X15903809Y-10810952D01*
X15875238Y-10820476D01*
X15827619Y-10820476D01*
X16027619Y-10820476D02*
X16027619Y-10687143D01*
X16027619Y-10725238D02*
X16037143Y-10706190D01*
X16046667Y-10696667D01*
X16065714Y-10687143D01*
X16084762Y-10687143D01*
X16151428Y-10820476D02*
X16151428Y-10687143D01*
X16151428Y-10620476D02*
X16141905Y-10630000D01*
X16151428Y-10639524D01*
X16160952Y-10630000D01*
X16151428Y-10620476D01*
X16151428Y-10639524D01*
X16275238Y-10820476D02*
X16256190Y-10810952D01*
X16246667Y-10791905D01*
X16246667Y-10620476D01*
X16380000Y-10820476D02*
X16360952Y-10810952D01*
X16351428Y-10791905D01*
X16351428Y-10620476D01*
X16608571Y-10820476D02*
X16608571Y-10620476D01*
X16675238Y-10763333D01*
X16741905Y-10620476D01*
X16741905Y-10820476D01*
X16922857Y-10820476D02*
X16922857Y-10715714D01*
X16913333Y-10696667D01*
X16894286Y-10687143D01*
X16856190Y-10687143D01*
X16837143Y-10696667D01*
X16922857Y-10810952D02*
X16903810Y-10820476D01*
X16856190Y-10820476D01*
X16837143Y-10810952D01*
X16827619Y-10791905D01*
X16827619Y-10772857D01*
X16837143Y-10753810D01*
X16856190Y-10744286D01*
X16903810Y-10744286D01*
X16922857Y-10734762D01*
X17018095Y-10687143D02*
X17018095Y-10887143D01*
X17018095Y-10696667D02*
X17037143Y-10687143D01*
X17075238Y-10687143D01*
X17094286Y-10696667D01*
X17103810Y-10706190D01*
X17113333Y-10725238D01*
X17113333Y-10782381D01*
X17103810Y-10801429D01*
X17094286Y-10810952D01*
X17075238Y-10820476D01*
X17037143Y-10820476D01*
X17018095Y-10810952D01*
X17199048Y-10801429D02*
X17208571Y-10810952D01*
X17199048Y-10820476D01*
X17189524Y-10810952D01*
X17199048Y-10801429D01*
X17199048Y-10820476D01*
X17199048Y-10696667D02*
X17208571Y-10706190D01*
X17199048Y-10715714D01*
X17189524Y-10706190D01*
X17199048Y-10696667D01*
X17199048Y-10715714D01*
D12*
X15530000Y-11130000D02*
X15570000Y-11170000D01*
X15570000Y-11130000D02*
X15530000Y-11170000D01*
D11*
X15865714Y-11040476D02*
X15884762Y-11040476D01*
X15903809Y-11050000D01*
X15913333Y-11059524D01*
X15922857Y-11078571D01*
X15932381Y-11116667D01*
X15932381Y-11164286D01*
X15922857Y-11202381D01*
X15913333Y-11221428D01*
X15903809Y-11230952D01*
X15884762Y-11240476D01*
X15865714Y-11240476D01*
X15846667Y-11230952D01*
X15837143Y-11221428D01*
X15827619Y-11202381D01*
X15818095Y-11164286D01*
X15818095Y-11116667D01*
X15827619Y-11078571D01*
X15837143Y-11059524D01*
X15846667Y-11050000D01*
X15865714Y-11040476D01*
X16018095Y-11221428D02*
X16027619Y-11230952D01*
X16018095Y-11240476D01*
X16008571Y-11230952D01*
X16018095Y-11221428D01*
X16018095Y-11240476D01*
X16199048Y-11107143D02*
X16199048Y-11240476D01*
X16151428Y-11030952D02*
X16103809Y-11173810D01*
X16227619Y-11173810D01*
X16341905Y-11040476D02*
X16360952Y-11040476D01*
X16380000Y-11050000D01*
X16389524Y-11059524D01*
X16399048Y-11078571D01*
X16408571Y-11116667D01*
X16408571Y-11164286D01*
X16399048Y-11202381D01*
X16389524Y-11221428D01*
X16380000Y-11230952D01*
X16360952Y-11240476D01*
X16341905Y-11240476D01*
X16322857Y-11230952D01*
X16313333Y-11221428D01*
X16303809Y-11202381D01*
X16294286Y-11164286D01*
X16294286Y-11116667D01*
X16303809Y-11078571D01*
X16313333Y-11059524D01*
X16322857Y-11050000D01*
X16341905Y-11040476D01*
X16532381Y-11040476D02*
X16551428Y-11040476D01*
X16570476Y-11050000D01*
X16580000Y-11059524D01*
X16589524Y-11078571D01*
X16599048Y-11116667D01*
X16599048Y-11164286D01*
X16589524Y-11202381D01*
X16580000Y-11221428D01*
X16570476Y-11230952D01*
X16551428Y-11240476D01*
X16532381Y-11240476D01*
X16513333Y-11230952D01*
X16503809Y-11221428D01*
X16494286Y-11202381D01*
X16484762Y-11164286D01*
X16484762Y-11116667D01*
X16494286Y-11078571D01*
X16503809Y-11059524D01*
X16513333Y-11050000D01*
X16532381Y-11040476D01*
X16684762Y-11240476D02*
X16684762Y-11107143D01*
X16684762Y-11126190D02*
X16694286Y-11116667D01*
X16713333Y-11107143D01*
X16741905Y-11107143D01*
X16760952Y-11116667D01*
X16770476Y-11135714D01*
X16770476Y-11240476D01*
X16770476Y-11135714D02*
X16780000Y-11116667D01*
X16799048Y-11107143D01*
X16827619Y-11107143D01*
X16846667Y-11116667D01*
X16856190Y-11135714D01*
X16856190Y-11240476D01*
X16951429Y-11240476D02*
X16951429Y-11107143D01*
X16951429Y-11126190D02*
X16960952Y-11116667D01*
X16980000Y-11107143D01*
X17008571Y-11107143D01*
X17027619Y-11116667D01*
X17037143Y-11135714D01*
X17037143Y-11240476D01*
X17037143Y-11135714D02*
X17046667Y-11116667D01*
X17065714Y-11107143D01*
X17094286Y-11107143D01*
X17113333Y-11116667D01*
X17122857Y-11135714D01*
X17122857Y-11240476D01*
X17513333Y-11030952D02*
X17341905Y-11288095D01*
X17770476Y-11040476D02*
X17789524Y-11040476D01*
X17808571Y-11050000D01*
X17818095Y-11059524D01*
X17827619Y-11078571D01*
X17837143Y-11116667D01*
X17837143Y-11164286D01*
X17827619Y-11202381D01*
X17818095Y-11221428D01*
X17808571Y-11230952D01*
X17789524Y-11240476D01*
X17770476Y-11240476D01*
X17751429Y-11230952D01*
X17741905Y-11221428D01*
X17732381Y-11202381D01*
X17722857Y-11164286D01*
X17722857Y-11116667D01*
X17732381Y-11078571D01*
X17741905Y-11059524D01*
X17751429Y-11050000D01*
X17770476Y-11040476D01*
X17922857Y-11221428D02*
X17932381Y-11230952D01*
X17922857Y-11240476D01*
X17913333Y-11230952D01*
X17922857Y-11221428D01*
X17922857Y-11240476D01*
X18056190Y-11040476D02*
X18075238Y-11040476D01*
X18094286Y-11050000D01*
X18103810Y-11059524D01*
X18113333Y-11078571D01*
X18122857Y-11116667D01*
X18122857Y-11164286D01*
X18113333Y-11202381D01*
X18103810Y-11221428D01*
X18094286Y-11230952D01*
X18075238Y-11240476D01*
X18056190Y-11240476D01*
X18037143Y-11230952D01*
X18027619Y-11221428D01*
X18018095Y-11202381D01*
X18008571Y-11164286D01*
X18008571Y-11116667D01*
X18018095Y-11078571D01*
X18027619Y-11059524D01*
X18037143Y-11050000D01*
X18056190Y-11040476D01*
X18313333Y-11240476D02*
X18199048Y-11240476D01*
X18256190Y-11240476D02*
X18256190Y-11040476D01*
X18237143Y-11069048D01*
X18218095Y-11088095D01*
X18199048Y-11097619D01*
X18494286Y-11040476D02*
X18399048Y-11040476D01*
X18389524Y-11135714D01*
X18399048Y-11126190D01*
X18418095Y-11116667D01*
X18465714Y-11116667D01*
X18484762Y-11126190D01*
X18494286Y-11135714D01*
X18503810Y-11154762D01*
X18503810Y-11202381D01*
X18494286Y-11221428D01*
X18484762Y-11230952D01*
X18465714Y-11240476D01*
X18418095Y-11240476D01*
X18399048Y-11230952D01*
X18389524Y-11221428D01*
X18570476Y-11040476D02*
X18703810Y-11040476D01*
X18618095Y-11240476D01*
X18770476Y-11040476D02*
X18770476Y-11078571D01*
X18846667Y-11040476D02*
X18846667Y-11078571D01*
X19141905Y-11316667D02*
X19132381Y-11307143D01*
X19113333Y-11278571D01*
X19103810Y-11259524D01*
X19094286Y-11230952D01*
X19084762Y-11183333D01*
X19084762Y-11145238D01*
X19094286Y-11097619D01*
X19103810Y-11069048D01*
X19113333Y-11050000D01*
X19132381Y-11021429D01*
X19141905Y-11011905D01*
X19199048Y-11040476D02*
X19332381Y-11040476D01*
X19246667Y-11240476D01*
X19560952Y-11240476D02*
X19560952Y-11040476D01*
X19646667Y-11240476D02*
X19646667Y-11135714D01*
X19637143Y-11116667D01*
X19618095Y-11107143D01*
X19589524Y-11107143D01*
X19570476Y-11116667D01*
X19560952Y-11126190D01*
X19770476Y-11240476D02*
X19751429Y-11230952D01*
X19741905Y-11221428D01*
X19732381Y-11202381D01*
X19732381Y-11145238D01*
X19741905Y-11126190D01*
X19751429Y-11116667D01*
X19770476Y-11107143D01*
X19799048Y-11107143D01*
X19818095Y-11116667D01*
X19827619Y-11126190D01*
X19837143Y-11145238D01*
X19837143Y-11202381D01*
X19827619Y-11221428D01*
X19818095Y-11230952D01*
X19799048Y-11240476D01*
X19770476Y-11240476D01*
X19951429Y-11240476D02*
X19932381Y-11230952D01*
X19922857Y-11211905D01*
X19922857Y-11040476D01*
X20103810Y-11230952D02*
X20084762Y-11240476D01*
X20046667Y-11240476D01*
X20027619Y-11230952D01*
X20018095Y-11211905D01*
X20018095Y-11135714D01*
X20027619Y-11116667D01*
X20046667Y-11107143D01*
X20084762Y-11107143D01*
X20103810Y-11116667D01*
X20113333Y-11135714D01*
X20113333Y-11154762D01*
X20018095Y-11173810D01*
X20189524Y-11230952D02*
X20208571Y-11240476D01*
X20246667Y-11240476D01*
X20265714Y-11230952D01*
X20275238Y-11211905D01*
X20275238Y-11202381D01*
X20265714Y-11183333D01*
X20246667Y-11173810D01*
X20218095Y-11173810D01*
X20199048Y-11164286D01*
X20189524Y-11145238D01*
X20189524Y-11135714D01*
X20199048Y-11116667D01*
X20218095Y-11107143D01*
X20246667Y-11107143D01*
X20265714Y-11116667D01*
X20341905Y-11316667D02*
X20351429Y-11307143D01*
X20370476Y-11278571D01*
X20380000Y-11259524D01*
X20389524Y-11230952D01*
X20399048Y-11183333D01*
X20399048Y-11145238D01*
X20389524Y-11097619D01*
X20380000Y-11069048D01*
X20370476Y-11050000D01*
X20351429Y-11021429D01*
X20341905Y-11011905D01*
D13*
X15570000Y-11414000D02*
G75*
G03*
X15570000Y-11414000I-50000J0D01*
G01*
D11*
X15932381Y-11504476D02*
X15818095Y-11504476D01*
X15875238Y-11504476D02*
X15875238Y-11304476D01*
X15856190Y-11333048D01*
X15837143Y-11352095D01*
X15818095Y-11361619D01*
X16018095Y-11485428D02*
X16027619Y-11494952D01*
X16018095Y-11504476D01*
X16008571Y-11494952D01*
X16018095Y-11485428D01*
X16018095Y-11504476D01*
X16151428Y-11304476D02*
X16170476Y-11304476D01*
X16189524Y-11314000D01*
X16199048Y-11323524D01*
X16208571Y-11342571D01*
X16218095Y-11380667D01*
X16218095Y-11428286D01*
X16208571Y-11466381D01*
X16199048Y-11485428D01*
X16189524Y-11494952D01*
X16170476Y-11504476D01*
X16151428Y-11504476D01*
X16132381Y-11494952D01*
X16122857Y-11485428D01*
X16113333Y-11466381D01*
X16103809Y-11428286D01*
X16103809Y-11380667D01*
X16113333Y-11342571D01*
X16122857Y-11323524D01*
X16132381Y-11314000D01*
X16151428Y-11304476D01*
X16341905Y-11304476D02*
X16360952Y-11304476D01*
X16380000Y-11314000D01*
X16389524Y-11323524D01*
X16399048Y-11342571D01*
X16408571Y-11380667D01*
X16408571Y-11428286D01*
X16399048Y-11466381D01*
X16389524Y-11485428D01*
X16380000Y-11494952D01*
X16360952Y-11504476D01*
X16341905Y-11504476D01*
X16322857Y-11494952D01*
X16313333Y-11485428D01*
X16303809Y-11466381D01*
X16294286Y-11428286D01*
X16294286Y-11380667D01*
X16303809Y-11342571D01*
X16313333Y-11323524D01*
X16322857Y-11314000D01*
X16341905Y-11304476D01*
X16532381Y-11304476D02*
X16551428Y-11304476D01*
X16570476Y-11314000D01*
X16580000Y-11323524D01*
X16589524Y-11342571D01*
X16599048Y-11380667D01*
X16599048Y-11428286D01*
X16589524Y-11466381D01*
X16580000Y-11485428D01*
X16570476Y-11494952D01*
X16551428Y-11504476D01*
X16532381Y-11504476D01*
X16513333Y-11494952D01*
X16503809Y-11485428D01*
X16494286Y-11466381D01*
X16484762Y-11428286D01*
X16484762Y-11380667D01*
X16494286Y-11342571D01*
X16503809Y-11323524D01*
X16513333Y-11314000D01*
X16532381Y-11304476D01*
X16684762Y-11504476D02*
X16684762Y-11371143D01*
X16684762Y-11390190D02*
X16694286Y-11380667D01*
X16713333Y-11371143D01*
X16741905Y-11371143D01*
X16760952Y-11380667D01*
X16770476Y-11399714D01*
X16770476Y-11504476D01*
X16770476Y-11399714D02*
X16780000Y-11380667D01*
X16799048Y-11371143D01*
X16827619Y-11371143D01*
X16846667Y-11380667D01*
X16856190Y-11399714D01*
X16856190Y-11504476D01*
X16951429Y-11504476D02*
X16951429Y-11371143D01*
X16951429Y-11390190D02*
X16960952Y-11380667D01*
X16980000Y-11371143D01*
X17008571Y-11371143D01*
X17027619Y-11380667D01*
X17037143Y-11399714D01*
X17037143Y-11504476D01*
X17037143Y-11399714D02*
X17046667Y-11380667D01*
X17065714Y-11371143D01*
X17094286Y-11371143D01*
X17113333Y-11380667D01*
X17122857Y-11399714D01*
X17122857Y-11504476D01*
X17513333Y-11294952D02*
X17341905Y-11552095D01*
X17770476Y-11304476D02*
X17789524Y-11304476D01*
X17808571Y-11314000D01*
X17818095Y-11323524D01*
X17827619Y-11342571D01*
X17837143Y-11380667D01*
X17837143Y-11428286D01*
X17827619Y-11466381D01*
X17818095Y-11485428D01*
X17808571Y-11494952D01*
X17789524Y-11504476D01*
X17770476Y-11504476D01*
X17751429Y-11494952D01*
X17741905Y-11485428D01*
X17732381Y-11466381D01*
X17722857Y-11428286D01*
X17722857Y-11380667D01*
X17732381Y-11342571D01*
X17741905Y-11323524D01*
X17751429Y-11314000D01*
X17770476Y-11304476D01*
X17922857Y-11485428D02*
X17932381Y-11494952D01*
X17922857Y-11504476D01*
X17913333Y-11494952D01*
X17922857Y-11485428D01*
X17922857Y-11504476D01*
X18056190Y-11304476D02*
X18075238Y-11304476D01*
X18094286Y-11314000D01*
X18103810Y-11323524D01*
X18113333Y-11342571D01*
X18122857Y-11380667D01*
X18122857Y-11428286D01*
X18113333Y-11466381D01*
X18103810Y-11485428D01*
X18094286Y-11494952D01*
X18075238Y-11504476D01*
X18056190Y-11504476D01*
X18037143Y-11494952D01*
X18027619Y-11485428D01*
X18018095Y-11466381D01*
X18008571Y-11428286D01*
X18008571Y-11380667D01*
X18018095Y-11342571D01*
X18027619Y-11323524D01*
X18037143Y-11314000D01*
X18056190Y-11304476D01*
X18189524Y-11304476D02*
X18313333Y-11304476D01*
X18246667Y-11380667D01*
X18275238Y-11380667D01*
X18294286Y-11390190D01*
X18303810Y-11399714D01*
X18313333Y-11418762D01*
X18313333Y-11466381D01*
X18303810Y-11485428D01*
X18294286Y-11494952D01*
X18275238Y-11504476D01*
X18218095Y-11504476D01*
X18199048Y-11494952D01*
X18189524Y-11485428D01*
X18408571Y-11504476D02*
X18446667Y-11504476D01*
X18465714Y-11494952D01*
X18475238Y-11485428D01*
X18494286Y-11456857D01*
X18503810Y-11418762D01*
X18503810Y-11342571D01*
X18494286Y-11323524D01*
X18484762Y-11314000D01*
X18465714Y-11304476D01*
X18427619Y-11304476D01*
X18408571Y-11314000D01*
X18399048Y-11323524D01*
X18389524Y-11342571D01*
X18389524Y-11390190D01*
X18399048Y-11409238D01*
X18408571Y-11418762D01*
X18427619Y-11428286D01*
X18465714Y-11428286D01*
X18484762Y-11418762D01*
X18494286Y-11409238D01*
X18503810Y-11390190D01*
X18675238Y-11371143D02*
X18675238Y-11504476D01*
X18627619Y-11294952D02*
X18580000Y-11437809D01*
X18703810Y-11437809D01*
X18770476Y-11304476D02*
X18770476Y-11342571D01*
X18846667Y-11304476D02*
X18846667Y-11342571D01*
X19141905Y-11580667D02*
X19132381Y-11571143D01*
X19113333Y-11542571D01*
X19103810Y-11523524D01*
X19094286Y-11494952D01*
X19084762Y-11447333D01*
X19084762Y-11409238D01*
X19094286Y-11361619D01*
X19103810Y-11333048D01*
X19113333Y-11314000D01*
X19132381Y-11285428D01*
X19141905Y-11275905D01*
X19322857Y-11504476D02*
X19208571Y-11504476D01*
X19265714Y-11504476D02*
X19265714Y-11304476D01*
X19246667Y-11333048D01*
X19227619Y-11352095D01*
X19208571Y-11361619D01*
X19446667Y-11304476D02*
X19465714Y-11304476D01*
X19484762Y-11314000D01*
X19494286Y-11323524D01*
X19503810Y-11342571D01*
X19513333Y-11380667D01*
X19513333Y-11428286D01*
X19503810Y-11466381D01*
X19494286Y-11485428D01*
X19484762Y-11494952D01*
X19465714Y-11504476D01*
X19446667Y-11504476D01*
X19427619Y-11494952D01*
X19418095Y-11485428D01*
X19408571Y-11466381D01*
X19399048Y-11428286D01*
X19399048Y-11380667D01*
X19408571Y-11342571D01*
X19418095Y-11323524D01*
X19427619Y-11314000D01*
X19446667Y-11304476D01*
X19751429Y-11504476D02*
X19751429Y-11304476D01*
X19837143Y-11504476D02*
X19837143Y-11399714D01*
X19827619Y-11380667D01*
X19808571Y-11371143D01*
X19780000Y-11371143D01*
X19760952Y-11380667D01*
X19751429Y-11390190D01*
X19960952Y-11504476D02*
X19941905Y-11494952D01*
X19932381Y-11485428D01*
X19922857Y-11466381D01*
X19922857Y-11409238D01*
X19932381Y-11390190D01*
X19941905Y-11380667D01*
X19960952Y-11371143D01*
X19989524Y-11371143D01*
X20008571Y-11380667D01*
X20018095Y-11390190D01*
X20027619Y-11409238D01*
X20027619Y-11466381D01*
X20018095Y-11485428D01*
X20008571Y-11494952D01*
X19989524Y-11504476D01*
X19960952Y-11504476D01*
X20141905Y-11504476D02*
X20122857Y-11494952D01*
X20113333Y-11475905D01*
X20113333Y-11304476D01*
X20294286Y-11494952D02*
X20275238Y-11504476D01*
X20237143Y-11504476D01*
X20218095Y-11494952D01*
X20208571Y-11475905D01*
X20208571Y-11399714D01*
X20218095Y-11380667D01*
X20237143Y-11371143D01*
X20275238Y-11371143D01*
X20294286Y-11380667D01*
X20303810Y-11399714D01*
X20303810Y-11418762D01*
X20208571Y-11437809D01*
X20380000Y-11494952D02*
X20399048Y-11504476D01*
X20437143Y-11504476D01*
X20456190Y-11494952D01*
X20465714Y-11475905D01*
X20465714Y-11466381D01*
X20456190Y-11447333D01*
X20437143Y-11437809D01*
X20408571Y-11437809D01*
X20389524Y-11428286D01*
X20380000Y-11409238D01*
X20380000Y-11399714D01*
X20389524Y-11380667D01*
X20408571Y-11371143D01*
X20437143Y-11371143D01*
X20456190Y-11380667D01*
X20532381Y-11580667D02*
X20541905Y-11571143D01*
X20560952Y-11542571D01*
X20570476Y-11523524D01*
X20580000Y-11494952D01*
X20589524Y-11447333D01*
X20589524Y-11409238D01*
X20580000Y-11361619D01*
X20570476Y-11333048D01*
X20560952Y-11314000D01*
X20541905Y-11285428D01*
X20532381Y-11275905D01*
D14*
X15480000Y-11588000D02*
X15480000Y-11768000D01*
X15390000Y-11678000D02*
X15570000Y-11678000D01*
D11*
X15932381Y-11768476D02*
X15818095Y-11768476D01*
X15875238Y-11768476D02*
X15875238Y-11568476D01*
X15856190Y-11597048D01*
X15837143Y-11616095D01*
X15818095Y-11625619D01*
X16018095Y-11749428D02*
X16027619Y-11758952D01*
X16018095Y-11768476D01*
X16008571Y-11758952D01*
X16018095Y-11749428D01*
X16018095Y-11768476D01*
X16141905Y-11654190D02*
X16122857Y-11644667D01*
X16113333Y-11635143D01*
X16103809Y-11616095D01*
X16103809Y-11606571D01*
X16113333Y-11587524D01*
X16122857Y-11578000D01*
X16141905Y-11568476D01*
X16180000Y-11568476D01*
X16199048Y-11578000D01*
X16208571Y-11587524D01*
X16218095Y-11606571D01*
X16218095Y-11616095D01*
X16208571Y-11635143D01*
X16199048Y-11644667D01*
X16180000Y-11654190D01*
X16141905Y-11654190D01*
X16122857Y-11663714D01*
X16113333Y-11673238D01*
X16103809Y-11692286D01*
X16103809Y-11730381D01*
X16113333Y-11749428D01*
X16122857Y-11758952D01*
X16141905Y-11768476D01*
X16180000Y-11768476D01*
X16199048Y-11758952D01*
X16208571Y-11749428D01*
X16218095Y-11730381D01*
X16218095Y-11692286D01*
X16208571Y-11673238D01*
X16199048Y-11663714D01*
X16180000Y-11654190D01*
X16341905Y-11568476D02*
X16360952Y-11568476D01*
X16380000Y-11578000D01*
X16389524Y-11587524D01*
X16399048Y-11606571D01*
X16408571Y-11644667D01*
X16408571Y-11692286D01*
X16399048Y-11730381D01*
X16389524Y-11749428D01*
X16380000Y-11758952D01*
X16360952Y-11768476D01*
X16341905Y-11768476D01*
X16322857Y-11758952D01*
X16313333Y-11749428D01*
X16303809Y-11730381D01*
X16294286Y-11692286D01*
X16294286Y-11644667D01*
X16303809Y-11606571D01*
X16313333Y-11587524D01*
X16322857Y-11578000D01*
X16341905Y-11568476D01*
X16532381Y-11568476D02*
X16551428Y-11568476D01*
X16570476Y-11578000D01*
X16580000Y-11587524D01*
X16589524Y-11606571D01*
X16599048Y-11644667D01*
X16599048Y-11692286D01*
X16589524Y-11730381D01*
X16580000Y-11749428D01*
X16570476Y-11758952D01*
X16551428Y-11768476D01*
X16532381Y-11768476D01*
X16513333Y-11758952D01*
X16503809Y-11749428D01*
X16494286Y-11730381D01*
X16484762Y-11692286D01*
X16484762Y-11644667D01*
X16494286Y-11606571D01*
X16503809Y-11587524D01*
X16513333Y-11578000D01*
X16532381Y-11568476D01*
X16684762Y-11768476D02*
X16684762Y-11635143D01*
X16684762Y-11654190D02*
X16694286Y-11644667D01*
X16713333Y-11635143D01*
X16741905Y-11635143D01*
X16760952Y-11644667D01*
X16770476Y-11663714D01*
X16770476Y-11768476D01*
X16770476Y-11663714D02*
X16780000Y-11644667D01*
X16799048Y-11635143D01*
X16827619Y-11635143D01*
X16846667Y-11644667D01*
X16856190Y-11663714D01*
X16856190Y-11768476D01*
X16951429Y-11768476D02*
X16951429Y-11635143D01*
X16951429Y-11654190D02*
X16960952Y-11644667D01*
X16980000Y-11635143D01*
X17008571Y-11635143D01*
X17027619Y-11644667D01*
X17037143Y-11663714D01*
X17037143Y-11768476D01*
X17037143Y-11663714D02*
X17046667Y-11644667D01*
X17065714Y-11635143D01*
X17094286Y-11635143D01*
X17113333Y-11644667D01*
X17122857Y-11663714D01*
X17122857Y-11768476D01*
X17513333Y-11558952D02*
X17341905Y-11816095D01*
X17770476Y-11568476D02*
X17789524Y-11568476D01*
X17808571Y-11578000D01*
X17818095Y-11587524D01*
X17827619Y-11606571D01*
X17837143Y-11644667D01*
X17837143Y-11692286D01*
X17827619Y-11730381D01*
X17818095Y-11749428D01*
X17808571Y-11758952D01*
X17789524Y-11768476D01*
X17770476Y-11768476D01*
X17751429Y-11758952D01*
X17741905Y-11749428D01*
X17732381Y-11730381D01*
X17722857Y-11692286D01*
X17722857Y-11644667D01*
X17732381Y-11606571D01*
X17741905Y-11587524D01*
X17751429Y-11578000D01*
X17770476Y-11568476D01*
X17922857Y-11749428D02*
X17932381Y-11758952D01*
X17922857Y-11768476D01*
X17913333Y-11758952D01*
X17922857Y-11749428D01*
X17922857Y-11768476D01*
X18056190Y-11568476D02*
X18075238Y-11568476D01*
X18094286Y-11578000D01*
X18103810Y-11587524D01*
X18113333Y-11606571D01*
X18122857Y-11644667D01*
X18122857Y-11692286D01*
X18113333Y-11730381D01*
X18103810Y-11749428D01*
X18094286Y-11758952D01*
X18075238Y-11768476D01*
X18056190Y-11768476D01*
X18037143Y-11758952D01*
X18027619Y-11749428D01*
X18018095Y-11730381D01*
X18008571Y-11692286D01*
X18008571Y-11644667D01*
X18018095Y-11606571D01*
X18027619Y-11587524D01*
X18037143Y-11578000D01*
X18056190Y-11568476D01*
X18189524Y-11568476D02*
X18322857Y-11568476D01*
X18237143Y-11768476D01*
X18437143Y-11568476D02*
X18456190Y-11568476D01*
X18475238Y-11578000D01*
X18484762Y-11587524D01*
X18494286Y-11606571D01*
X18503810Y-11644667D01*
X18503810Y-11692286D01*
X18494286Y-11730381D01*
X18484762Y-11749428D01*
X18475238Y-11758952D01*
X18456190Y-11768476D01*
X18437143Y-11768476D01*
X18418095Y-11758952D01*
X18408571Y-11749428D01*
X18399048Y-11730381D01*
X18389524Y-11692286D01*
X18389524Y-11644667D01*
X18399048Y-11606571D01*
X18408571Y-11587524D01*
X18418095Y-11578000D01*
X18437143Y-11568476D01*
X18599048Y-11768476D02*
X18637143Y-11768476D01*
X18656190Y-11758952D01*
X18665714Y-11749428D01*
X18684762Y-11720857D01*
X18694286Y-11682762D01*
X18694286Y-11606571D01*
X18684762Y-11587524D01*
X18675238Y-11578000D01*
X18656190Y-11568476D01*
X18618095Y-11568476D01*
X18599048Y-11578000D01*
X18589524Y-11587524D01*
X18580000Y-11606571D01*
X18580000Y-11654190D01*
X18589524Y-11673238D01*
X18599048Y-11682762D01*
X18618095Y-11692286D01*
X18656190Y-11692286D01*
X18675238Y-11682762D01*
X18684762Y-11673238D01*
X18694286Y-11654190D01*
X18770476Y-11568476D02*
X18770476Y-11606571D01*
X18846667Y-11568476D02*
X18846667Y-11606571D01*
X19141905Y-11844667D02*
X19132381Y-11835143D01*
X19113333Y-11806571D01*
X19103810Y-11787524D01*
X19094286Y-11758952D01*
X19084762Y-11711333D01*
X19084762Y-11673238D01*
X19094286Y-11625619D01*
X19103810Y-11597048D01*
X19113333Y-11578000D01*
X19132381Y-11549428D01*
X19141905Y-11539905D01*
X19322857Y-11768476D02*
X19208571Y-11768476D01*
X19265714Y-11768476D02*
X19265714Y-11568476D01*
X19246667Y-11597048D01*
X19227619Y-11616095D01*
X19208571Y-11625619D01*
X19446667Y-11568476D02*
X19465714Y-11568476D01*
X19484762Y-11578000D01*
X19494286Y-11587524D01*
X19503810Y-11606571D01*
X19513333Y-11644667D01*
X19513333Y-11692286D01*
X19503810Y-11730381D01*
X19494286Y-11749428D01*
X19484762Y-11758952D01*
X19465714Y-11768476D01*
X19446667Y-11768476D01*
X19427619Y-11758952D01*
X19418095Y-11749428D01*
X19408571Y-11730381D01*
X19399048Y-11692286D01*
X19399048Y-11644667D01*
X19408571Y-11606571D01*
X19418095Y-11587524D01*
X19427619Y-11578000D01*
X19446667Y-11568476D01*
X19751429Y-11768476D02*
X19751429Y-11568476D01*
X19837143Y-11768476D02*
X19837143Y-11663714D01*
X19827619Y-11644667D01*
X19808571Y-11635143D01*
X19780000Y-11635143D01*
X19760952Y-11644667D01*
X19751429Y-11654190D01*
X19960952Y-11768476D02*
X19941905Y-11758952D01*
X19932381Y-11749428D01*
X19922857Y-11730381D01*
X19922857Y-11673238D01*
X19932381Y-11654190D01*
X19941905Y-11644667D01*
X19960952Y-11635143D01*
X19989524Y-11635143D01*
X20008571Y-11644667D01*
X20018095Y-11654190D01*
X20027619Y-11673238D01*
X20027619Y-11730381D01*
X20018095Y-11749428D01*
X20008571Y-11758952D01*
X19989524Y-11768476D01*
X19960952Y-11768476D01*
X20141905Y-11768476D02*
X20122857Y-11758952D01*
X20113333Y-11739905D01*
X20113333Y-11568476D01*
X20294286Y-11758952D02*
X20275238Y-11768476D01*
X20237143Y-11768476D01*
X20218095Y-11758952D01*
X20208571Y-11739905D01*
X20208571Y-11663714D01*
X20218095Y-11644667D01*
X20237143Y-11635143D01*
X20275238Y-11635143D01*
X20294286Y-11644667D01*
X20303810Y-11663714D01*
X20303810Y-11682762D01*
X20208571Y-11701809D01*
X20380000Y-11758952D02*
X20399048Y-11768476D01*
X20437143Y-11768476D01*
X20456190Y-11758952D01*
X20465714Y-11739905D01*
X20465714Y-11730381D01*
X20456190Y-11711333D01*
X20437143Y-11701809D01*
X20408571Y-11701809D01*
X20389524Y-11692286D01*
X20380000Y-11673238D01*
X20380000Y-11663714D01*
X20389524Y-11644667D01*
X20408571Y-11635143D01*
X20437143Y-11635143D01*
X20456190Y-11644667D01*
X20532381Y-11844667D02*
X20541905Y-11835143D01*
X20560952Y-11806571D01*
X20570476Y-11787524D01*
X20580000Y-11758952D01*
X20589524Y-11711333D01*
X20589524Y-11673238D01*
X20580000Y-11625619D01*
X20570476Y-11597048D01*
X20560952Y-11578000D01*
X20541905Y-11549428D01*
X20532381Y-11539905D01*
X15540711Y-12048711D02*
X15540711Y-11907289D01*
X15399289Y-11907289D01*
X15399289Y-12048711D01*
X15540711Y-12048711D01*
X15818095Y-11887524D02*
X15827619Y-11878000D01*
X15846667Y-11868476D01*
X15894286Y-11868476D01*
X15913333Y-11878000D01*
X15922857Y-11887524D01*
X15932381Y-11906571D01*
X15932381Y-11925619D01*
X15922857Y-11954190D01*
X15808571Y-12068476D01*
X15932381Y-12068476D01*
X16018095Y-12049428D02*
X16027619Y-12058952D01*
X16018095Y-12068476D01*
X16008571Y-12058952D01*
X16018095Y-12049428D01*
X16018095Y-12068476D01*
X16208571Y-11868476D02*
X16113333Y-11868476D01*
X16103809Y-11963714D01*
X16113333Y-11954190D01*
X16132381Y-11944667D01*
X16180000Y-11944667D01*
X16199048Y-11954190D01*
X16208571Y-11963714D01*
X16218095Y-11982762D01*
X16218095Y-12030381D01*
X16208571Y-12049428D01*
X16199048Y-12058952D01*
X16180000Y-12068476D01*
X16132381Y-12068476D01*
X16113333Y-12058952D01*
X16103809Y-12049428D01*
X16341905Y-11868476D02*
X16360952Y-11868476D01*
X16380000Y-11878000D01*
X16389524Y-11887524D01*
X16399048Y-11906571D01*
X16408571Y-11944667D01*
X16408571Y-11992286D01*
X16399048Y-12030381D01*
X16389524Y-12049428D01*
X16380000Y-12058952D01*
X16360952Y-12068476D01*
X16341905Y-12068476D01*
X16322857Y-12058952D01*
X16313333Y-12049428D01*
X16303809Y-12030381D01*
X16294286Y-11992286D01*
X16294286Y-11944667D01*
X16303809Y-11906571D01*
X16313333Y-11887524D01*
X16322857Y-11878000D01*
X16341905Y-11868476D01*
X16532381Y-11868476D02*
X16551428Y-11868476D01*
X16570476Y-11878000D01*
X16580000Y-11887524D01*
X16589524Y-11906571D01*
X16599048Y-11944667D01*
X16599048Y-11992286D01*
X16589524Y-12030381D01*
X16580000Y-12049428D01*
X16570476Y-12058952D01*
X16551428Y-12068476D01*
X16532381Y-12068476D01*
X16513333Y-12058952D01*
X16503809Y-12049428D01*
X16494286Y-12030381D01*
X16484762Y-11992286D01*
X16484762Y-11944667D01*
X16494286Y-11906571D01*
X16503809Y-11887524D01*
X16513333Y-11878000D01*
X16532381Y-11868476D01*
X16684762Y-12068476D02*
X16684762Y-11935143D01*
X16684762Y-11954190D02*
X16694286Y-11944667D01*
X16713333Y-11935143D01*
X16741905Y-11935143D01*
X16760952Y-11944667D01*
X16770476Y-11963714D01*
X16770476Y-12068476D01*
X16770476Y-11963714D02*
X16780000Y-11944667D01*
X16799048Y-11935143D01*
X16827619Y-11935143D01*
X16846667Y-11944667D01*
X16856190Y-11963714D01*
X16856190Y-12068476D01*
X16951429Y-12068476D02*
X16951429Y-11935143D01*
X16951429Y-11954190D02*
X16960952Y-11944667D01*
X16980000Y-11935143D01*
X17008571Y-11935143D01*
X17027619Y-11944667D01*
X17037143Y-11963714D01*
X17037143Y-12068476D01*
X17037143Y-11963714D02*
X17046667Y-11944667D01*
X17065714Y-11935143D01*
X17094286Y-11935143D01*
X17113333Y-11944667D01*
X17122857Y-11963714D01*
X17122857Y-12068476D01*
X17513333Y-11858952D02*
X17341905Y-12116095D01*
X17770476Y-11868476D02*
X17789524Y-11868476D01*
X17808571Y-11878000D01*
X17818095Y-11887524D01*
X17827619Y-11906571D01*
X17837143Y-11944667D01*
X17837143Y-11992286D01*
X17827619Y-12030381D01*
X17818095Y-12049428D01*
X17808571Y-12058952D01*
X17789524Y-12068476D01*
X17770476Y-12068476D01*
X17751429Y-12058952D01*
X17741905Y-12049428D01*
X17732381Y-12030381D01*
X17722857Y-11992286D01*
X17722857Y-11944667D01*
X17732381Y-11906571D01*
X17741905Y-11887524D01*
X17751429Y-11878000D01*
X17770476Y-11868476D01*
X17922857Y-12049428D02*
X17932381Y-12058952D01*
X17922857Y-12068476D01*
X17913333Y-12058952D01*
X17922857Y-12049428D01*
X17922857Y-12068476D01*
X18056190Y-11868476D02*
X18075238Y-11868476D01*
X18094286Y-11878000D01*
X18103810Y-11887524D01*
X18113333Y-11906571D01*
X18122857Y-11944667D01*
X18122857Y-11992286D01*
X18113333Y-12030381D01*
X18103810Y-12049428D01*
X18094286Y-12058952D01*
X18075238Y-12068476D01*
X18056190Y-12068476D01*
X18037143Y-12058952D01*
X18027619Y-12049428D01*
X18018095Y-12030381D01*
X18008571Y-11992286D01*
X18008571Y-11944667D01*
X18018095Y-11906571D01*
X18027619Y-11887524D01*
X18037143Y-11878000D01*
X18056190Y-11868476D01*
X18218095Y-12068476D02*
X18256190Y-12068476D01*
X18275238Y-12058952D01*
X18284762Y-12049428D01*
X18303810Y-12020857D01*
X18313333Y-11982762D01*
X18313333Y-11906571D01*
X18303810Y-11887524D01*
X18294286Y-11878000D01*
X18275238Y-11868476D01*
X18237143Y-11868476D01*
X18218095Y-11878000D01*
X18208571Y-11887524D01*
X18199048Y-11906571D01*
X18199048Y-11954190D01*
X18208571Y-11973238D01*
X18218095Y-11982762D01*
X18237143Y-11992286D01*
X18275238Y-11992286D01*
X18294286Y-11982762D01*
X18303810Y-11973238D01*
X18313333Y-11954190D01*
X18427619Y-11954190D02*
X18408571Y-11944667D01*
X18399048Y-11935143D01*
X18389524Y-11916095D01*
X18389524Y-11906571D01*
X18399048Y-11887524D01*
X18408571Y-11878000D01*
X18427619Y-11868476D01*
X18465714Y-11868476D01*
X18484762Y-11878000D01*
X18494286Y-11887524D01*
X18503810Y-11906571D01*
X18503810Y-11916095D01*
X18494286Y-11935143D01*
X18484762Y-11944667D01*
X18465714Y-11954190D01*
X18427619Y-11954190D01*
X18408571Y-11963714D01*
X18399048Y-11973238D01*
X18389524Y-11992286D01*
X18389524Y-12030381D01*
X18399048Y-12049428D01*
X18408571Y-12058952D01*
X18427619Y-12068476D01*
X18465714Y-12068476D01*
X18484762Y-12058952D01*
X18494286Y-12049428D01*
X18503810Y-12030381D01*
X18503810Y-11992286D01*
X18494286Y-11973238D01*
X18484762Y-11963714D01*
X18465714Y-11954190D01*
X18675238Y-11935143D02*
X18675238Y-12068476D01*
X18627619Y-11858952D02*
X18580000Y-12001809D01*
X18703810Y-12001809D01*
X18770476Y-11868476D02*
X18770476Y-11906571D01*
X18846667Y-11868476D02*
X18846667Y-11906571D01*
X19141905Y-12144667D02*
X19132381Y-12135143D01*
X19113333Y-12106571D01*
X19103810Y-12087524D01*
X19094286Y-12058952D01*
X19084762Y-12011333D01*
X19084762Y-11973238D01*
X19094286Y-11925619D01*
X19103810Y-11897048D01*
X19113333Y-11878000D01*
X19132381Y-11849428D01*
X19141905Y-11839905D01*
X19208571Y-11887524D02*
X19218095Y-11878000D01*
X19237143Y-11868476D01*
X19284762Y-11868476D01*
X19303810Y-11878000D01*
X19313333Y-11887524D01*
X19322857Y-11906571D01*
X19322857Y-11925619D01*
X19313333Y-11954190D01*
X19199048Y-12068476D01*
X19322857Y-12068476D01*
X19560952Y-12068476D02*
X19560952Y-11868476D01*
X19646667Y-12068476D02*
X19646667Y-11963714D01*
X19637143Y-11944667D01*
X19618095Y-11935143D01*
X19589524Y-11935143D01*
X19570476Y-11944667D01*
X19560952Y-11954190D01*
X19770476Y-12068476D02*
X19751429Y-12058952D01*
X19741905Y-12049428D01*
X19732381Y-12030381D01*
X19732381Y-11973238D01*
X19741905Y-11954190D01*
X19751429Y-11944667D01*
X19770476Y-11935143D01*
X19799048Y-11935143D01*
X19818095Y-11944667D01*
X19827619Y-11954190D01*
X19837143Y-11973238D01*
X19837143Y-12030381D01*
X19827619Y-12049428D01*
X19818095Y-12058952D01*
X19799048Y-12068476D01*
X19770476Y-12068476D01*
X19951429Y-12068476D02*
X19932381Y-12058952D01*
X19922857Y-12039905D01*
X19922857Y-11868476D01*
X20103810Y-12058952D02*
X20084762Y-12068476D01*
X20046667Y-12068476D01*
X20027619Y-12058952D01*
X20018095Y-12039905D01*
X20018095Y-11963714D01*
X20027619Y-11944667D01*
X20046667Y-11935143D01*
X20084762Y-11935143D01*
X20103810Y-11944667D01*
X20113333Y-11963714D01*
X20113333Y-11982762D01*
X20018095Y-12001809D01*
X20189524Y-12058952D02*
X20208571Y-12068476D01*
X20246667Y-12068476D01*
X20265714Y-12058952D01*
X20275238Y-12039905D01*
X20275238Y-12030381D01*
X20265714Y-12011333D01*
X20246667Y-12001809D01*
X20218095Y-12001809D01*
X20199048Y-11992286D01*
X20189524Y-11973238D01*
X20189524Y-11963714D01*
X20199048Y-11944667D01*
X20218095Y-11935143D01*
X20246667Y-11935143D01*
X20265714Y-11944667D01*
X20341905Y-12144667D02*
X20351429Y-12135143D01*
X20370476Y-12106571D01*
X20380000Y-12087524D01*
X20389524Y-12058952D01*
X20399048Y-12011333D01*
X20399048Y-11973238D01*
X20389524Y-11925619D01*
X20380000Y-11897048D01*
X20370476Y-11878000D01*
X20351429Y-11849428D01*
X20341905Y-11839905D01*
M02*
