G04 #@! TF.GenerationSoftware,KiCad,Pcbnew,(6.0.5)*
G04 #@! TF.CreationDate,2022-08-24T21:51:27+01:00*
G04 #@! TF.ProjectId,iel-driver,69656c2d-6472-4697-9665-722e6b696361,rev?*
G04 #@! TF.SameCoordinates,Original*
G04 #@! TF.FileFunction,Soldermask,Bot*
G04 #@! TF.FilePolarity,Negative*
%FSLAX46Y46*%
G04 Gerber Fmt 4.6, Leading zero omitted, Abs format (unit mm)*
G04 Created by KiCad (PCBNEW (6.0.5)) date 2022-08-24 21:51:27*
%MOMM*%
%LPD*%
G01*
G04 APERTURE LIST*
%ADD10R,1.600000X1.600000*%
%ADD11O,1.600000X1.600000*%
%ADD12R,1.700000X1.700000*%
%ADD13O,1.700000X1.700000*%
%ADD14C,1.600000*%
G04 APERTURE END LIST*
D10*
X141900000Y-87600000D03*
D11*
X141900000Y-90140000D03*
X141900000Y-92680000D03*
X149520000Y-92680000D03*
X149520000Y-90140000D03*
X149520000Y-87600000D03*
D12*
X131725000Y-132575000D03*
D13*
X134265000Y-132575000D03*
X136805000Y-132575000D03*
X139345000Y-132575000D03*
X141885000Y-132575000D03*
X144425000Y-132575000D03*
X146965000Y-132575000D03*
X149505000Y-132575000D03*
D10*
X141900000Y-105075000D03*
D11*
X141900000Y-107615000D03*
X141900000Y-110155000D03*
X149520000Y-110155000D03*
X149520000Y-107615000D03*
X149520000Y-105075000D03*
D10*
X131400000Y-105075000D03*
D11*
X131400000Y-107615000D03*
X131400000Y-110155000D03*
X139020000Y-110155000D03*
X139020000Y-107615000D03*
X139020000Y-105075000D03*
D14*
X133180000Y-128900000D03*
D11*
X148420000Y-128900000D03*
D10*
X141900000Y-78875000D03*
D11*
X141900000Y-81415000D03*
X141900000Y-83955000D03*
X149520000Y-83955000D03*
X149520000Y-81415000D03*
X149520000Y-78875000D03*
D10*
X131400000Y-96275000D03*
D11*
X131400000Y-98815000D03*
X131400000Y-101355000D03*
X139020000Y-101355000D03*
X139020000Y-98815000D03*
X139020000Y-96275000D03*
D12*
X135525000Y-125100000D03*
D13*
X138065000Y-125100000D03*
X140605000Y-125100000D03*
X143145000Y-125100000D03*
X145685000Y-125100000D03*
D10*
X141900000Y-96275000D03*
D11*
X141900000Y-98815000D03*
X141900000Y-101355000D03*
X149520000Y-101355000D03*
X149520000Y-98815000D03*
X149520000Y-96275000D03*
D10*
X131400000Y-87575000D03*
D11*
X131400000Y-90115000D03*
X131400000Y-92655000D03*
X139020000Y-92655000D03*
X139020000Y-90115000D03*
X139020000Y-87575000D03*
D12*
X135425000Y-74700000D03*
D13*
X137965000Y-74700000D03*
X140505000Y-74700000D03*
X143045000Y-74700000D03*
X145585000Y-74700000D03*
D10*
X149700000Y-114500000D03*
D11*
X147160000Y-114500000D03*
X144620000Y-114500000D03*
X142080000Y-114500000D03*
X139540000Y-114500000D03*
X137000000Y-114500000D03*
X134460000Y-114500000D03*
X131920000Y-114500000D03*
X131920000Y-122120000D03*
X134460000Y-122120000D03*
X137000000Y-122120000D03*
X139540000Y-122120000D03*
X142080000Y-122120000D03*
X144620000Y-122120000D03*
X147160000Y-122120000D03*
X149700000Y-122120000D03*
D10*
X131400000Y-78875000D03*
D11*
X131400000Y-81415000D03*
X131400000Y-83955000D03*
X139020000Y-83955000D03*
X139020000Y-81415000D03*
X139020000Y-78875000D03*
M02*
