M48
; DRILL file {KiCad (6.0.5)} date Wed Aug 24 21:52:10 2022
; FORMAT={-:-/ absolute / metric / decimal}
; #@! TF.CreationDate,2022-08-24T21:52:10+01:00
; #@! TF.GenerationSoftware,Kicad,Pcbnew,(6.0.5)
; #@! TF.FileFunction,Plated,1,2,PTH
FMAT,2
METRIC
; #@! TA.AperFunction,Plated,PTH,ViaDrill
T1C0.400
; #@! TA.AperFunction,Plated,PTH,ComponentDrill
T2C0.800
; #@! TA.AperFunction,Plated,PTH,ComponentDrill
T3C1.000
%
G90
G05
T1
X130.275Y-85.825
X130.275Y-94.375
X130.275Y-103.175
X130.275Y-112.075
X131.7Y-127.1
X131.9Y-119.1
X132.9Y-100.2
X132.9Y-109.0
X133.1Y-83.115
X133.1Y-91.7
X134.1Y-105.3
X134.9Y-96.3
X135.1Y-127.5
X136.5Y-105.1
X136.9Y-129.2
X137.5Y-106.6
X141.1Y-112.9
X141.9Y-129.2
X142.1Y-119.1
X142.5Y-127.5
X143.4Y-112.9
X143.4Y-119.0
X144.9Y-105.1
X145.3Y-89.0
X146.3Y-79.0
X147.1Y-77.7
X147.2Y-119.0
X149.7Y-75.1
X149.7Y-124.7
X150.5Y-127.5
T2
X131.4Y-78.875
X131.4Y-81.415
X131.4Y-83.955
X131.4Y-87.575
X131.4Y-90.115
X131.4Y-92.655
X131.4Y-96.275
X131.4Y-98.815
X131.4Y-101.355
X131.4Y-105.075
X131.4Y-107.615
X131.4Y-110.155
X131.92Y-114.5
X131.92Y-122.12
X133.18Y-128.9
X134.46Y-114.5
X134.46Y-122.12
X137.0Y-114.5
X137.0Y-122.12
X139.02Y-78.875
X139.02Y-81.415
X139.02Y-83.955
X139.02Y-87.575
X139.02Y-90.115
X139.02Y-92.655
X139.02Y-96.275
X139.02Y-98.815
X139.02Y-101.355
X139.02Y-105.075
X139.02Y-107.615
X139.02Y-110.155
X139.54Y-114.5
X139.54Y-122.12
X141.9Y-78.875
X141.9Y-81.415
X141.9Y-83.955
X141.9Y-87.6
X141.9Y-90.14
X141.9Y-92.68
X141.9Y-96.275
X141.9Y-98.815
X141.9Y-101.355
X141.9Y-105.075
X141.9Y-107.615
X141.9Y-110.155
X142.08Y-114.5
X142.08Y-122.12
X144.62Y-114.5
X144.62Y-122.12
X147.16Y-114.5
X147.16Y-122.12
X148.42Y-128.9
X149.52Y-78.875
X149.52Y-81.415
X149.52Y-83.955
X149.52Y-87.6
X149.52Y-90.14
X149.52Y-92.68
X149.52Y-96.275
X149.52Y-98.815
X149.52Y-101.355
X149.52Y-105.075
X149.52Y-107.615
X149.52Y-110.155
X149.7Y-114.5
X149.7Y-122.12
T3
X131.725Y-132.575
X134.265Y-132.575
X135.425Y-74.7
X135.525Y-125.1
X136.805Y-132.575
X137.965Y-74.7
X138.065Y-125.1
X139.345Y-132.575
X140.505Y-74.7
X140.605Y-125.1
X141.885Y-132.575
X143.045Y-74.7
X143.145Y-125.1
X144.425Y-132.575
X145.585Y-74.7
X145.685Y-125.1
X146.965Y-132.575
X149.505Y-132.575
T0
M30
