%FSLAX45Y45*%
G04 Gerber Fmt 4.5, Leading zero omitted, Abs format (unit mm)*
G04 Created by KiCad (PCBNEW (6.0.5)) date 2022-08-24 21:52:36*
%MOMM*%
%LPD*%
G01*
G04 APERTURE LIST*
%TA.AperFunction,Profile*%
%ADD10C,0.200000*%
%TD*%
%ADD11C,0.200000*%
G04 APERTURE END LIST*
D10*
X12950000Y-7240000D02*
X15150000Y-7240000D01*
X15150000Y-7240000D02*
X15150000Y-13520000D01*
X15150000Y-13520000D02*
X12950000Y-13520000D01*
X12950000Y-13520000D02*
X12950000Y-7240000D01*
D11*
X13197619Y-13840476D02*
X13197619Y-13640476D01*
X13245238Y-13640476D01*
X13273809Y-13650000D01*
X13292857Y-13669048D01*
X13302381Y-13688095D01*
X13311905Y-13726190D01*
X13311905Y-13754762D01*
X13302381Y-13792857D01*
X13292857Y-13811905D01*
X13273809Y-13830952D01*
X13245238Y-13840476D01*
X13197619Y-13840476D01*
X13397619Y-13840476D02*
X13397619Y-13707143D01*
X13397619Y-13745238D02*
X13407143Y-13726190D01*
X13416667Y-13716667D01*
X13435714Y-13707143D01*
X13454762Y-13707143D01*
X13521428Y-13840476D02*
X13521428Y-13707143D01*
X13521428Y-13640476D02*
X13511905Y-13650000D01*
X13521428Y-13659524D01*
X13530952Y-13650000D01*
X13521428Y-13640476D01*
X13521428Y-13659524D01*
X13645238Y-13840476D02*
X13626190Y-13830952D01*
X13616667Y-13811905D01*
X13616667Y-13640476D01*
X13750000Y-13840476D02*
X13730952Y-13830952D01*
X13721428Y-13811905D01*
X13721428Y-13640476D01*
X13978571Y-13840476D02*
X13978571Y-13640476D01*
X14045238Y-13783333D01*
X14111905Y-13640476D01*
X14111905Y-13840476D01*
X14292857Y-13840476D02*
X14292857Y-13735714D01*
X14283333Y-13716667D01*
X14264286Y-13707143D01*
X14226190Y-13707143D01*
X14207143Y-13716667D01*
X14292857Y-13830952D02*
X14273809Y-13840476D01*
X14226190Y-13840476D01*
X14207143Y-13830952D01*
X14197619Y-13811905D01*
X14197619Y-13792857D01*
X14207143Y-13773809D01*
X14226190Y-13764286D01*
X14273809Y-13764286D01*
X14292857Y-13754762D01*
X14388095Y-13707143D02*
X14388095Y-13907143D01*
X14388095Y-13716667D02*
X14407143Y-13707143D01*
X14445238Y-13707143D01*
X14464286Y-13716667D01*
X14473809Y-13726190D01*
X14483333Y-13745238D01*
X14483333Y-13802381D01*
X14473809Y-13821428D01*
X14464286Y-13830952D01*
X14445238Y-13840476D01*
X14407143Y-13840476D01*
X14388095Y-13830952D01*
X14569048Y-13821428D02*
X14578571Y-13830952D01*
X14569048Y-13840476D01*
X14559524Y-13830952D01*
X14569048Y-13821428D01*
X14569048Y-13840476D01*
X14569048Y-13716667D02*
X14578571Y-13726190D01*
X14569048Y-13735714D01*
X14559524Y-13726190D01*
X14569048Y-13716667D01*
X14569048Y-13735714D01*
M02*
