G04 #@! TF.GenerationSoftware,KiCad,Pcbnew,(6.0.5)*
G04 #@! TF.CreationDate,2022-08-24T21:51:27+01:00*
G04 #@! TF.ProjectId,iel-driver,69656c2d-6472-4697-9665-722e6b696361,rev?*
G04 #@! TF.SameCoordinates,Original*
G04 #@! TF.FileFunction,Legend,Top*
G04 #@! TF.FilePolarity,Positive*
%FSLAX46Y46*%
G04 Gerber Fmt 4.6, Leading zero omitted, Abs format (unit mm)*
G04 Created by KiCad (PCBNEW (6.0.5)) date 2022-08-24 21:51:27*
%MOMM*%
%LPD*%
G01*
G04 APERTURE LIST*
%ADD10C,0.150000*%
%ADD11C,0.120000*%
%ADD12R,1.600000X1.600000*%
%ADD13O,1.600000X1.600000*%
%ADD14R,1.700000X1.700000*%
%ADD15O,1.700000X1.700000*%
%ADD16C,1.600000*%
G04 APERTURE END LIST*
D10*
X144948095Y-84722380D02*
X144948095Y-85531904D01*
X144995714Y-85627142D01*
X145043333Y-85674761D01*
X145138571Y-85722380D01*
X145329047Y-85722380D01*
X145424285Y-85674761D01*
X145471904Y-85627142D01*
X145519523Y-85531904D01*
X145519523Y-84722380D01*
X146519523Y-85722380D02*
X145948095Y-85722380D01*
X146233809Y-85722380D02*
X146233809Y-84722380D01*
X146138571Y-84865238D01*
X146043333Y-84960476D01*
X145948095Y-85008095D01*
X144948095Y-102197380D02*
X144948095Y-103006904D01*
X144995714Y-103102142D01*
X145043333Y-103149761D01*
X145138571Y-103197380D01*
X145329047Y-103197380D01*
X145424285Y-103149761D01*
X145471904Y-103102142D01*
X145519523Y-103006904D01*
X145519523Y-102197380D01*
X145900476Y-102197380D02*
X146567142Y-102197380D01*
X146138571Y-103197380D01*
X134448095Y-102197380D02*
X134448095Y-103006904D01*
X134495714Y-103102142D01*
X134543333Y-103149761D01*
X134638571Y-103197380D01*
X134829047Y-103197380D01*
X134924285Y-103149761D01*
X134971904Y-103102142D01*
X135019523Y-103006904D01*
X135019523Y-102197380D01*
X135543333Y-103197380D02*
X135733809Y-103197380D01*
X135829047Y-103149761D01*
X135876666Y-103102142D01*
X135971904Y-102959285D01*
X136019523Y-102768809D01*
X136019523Y-102387857D01*
X135971904Y-102292619D01*
X135924285Y-102245000D01*
X135829047Y-102197380D01*
X135638571Y-102197380D01*
X135543333Y-102245000D01*
X135495714Y-102292619D01*
X135448095Y-102387857D01*
X135448095Y-102625952D01*
X135495714Y-102721190D01*
X135543333Y-102768809D01*
X135638571Y-102816428D01*
X135829047Y-102816428D01*
X135924285Y-102768809D01*
X135971904Y-102721190D01*
X136019523Y-102625952D01*
X140633333Y-126982380D02*
X140300000Y-126506190D01*
X140061904Y-126982380D02*
X140061904Y-125982380D01*
X140442857Y-125982380D01*
X140538095Y-126030000D01*
X140585714Y-126077619D01*
X140633333Y-126172857D01*
X140633333Y-126315714D01*
X140585714Y-126410952D01*
X140538095Y-126458571D01*
X140442857Y-126506190D01*
X140061904Y-126506190D01*
X141585714Y-126982380D02*
X141014285Y-126982380D01*
X141300000Y-126982380D02*
X141300000Y-125982380D01*
X141204761Y-126125238D01*
X141109523Y-126220476D01*
X141014285Y-126268095D01*
X144948095Y-75997380D02*
X144948095Y-76806904D01*
X144995714Y-76902142D01*
X145043333Y-76949761D01*
X145138571Y-76997380D01*
X145329047Y-76997380D01*
X145424285Y-76949761D01*
X145471904Y-76902142D01*
X145519523Y-76806904D01*
X145519523Y-75997380D01*
X145948095Y-76092619D02*
X145995714Y-76045000D01*
X146090952Y-75997380D01*
X146329047Y-75997380D01*
X146424285Y-76045000D01*
X146471904Y-76092619D01*
X146519523Y-76187857D01*
X146519523Y-76283095D01*
X146471904Y-76425952D01*
X145900476Y-76997380D01*
X146519523Y-76997380D01*
X134448095Y-93397380D02*
X134448095Y-94206904D01*
X134495714Y-94302142D01*
X134543333Y-94349761D01*
X134638571Y-94397380D01*
X134829047Y-94397380D01*
X134924285Y-94349761D01*
X134971904Y-94302142D01*
X135019523Y-94206904D01*
X135019523Y-93397380D01*
X135638571Y-93825952D02*
X135543333Y-93778333D01*
X135495714Y-93730714D01*
X135448095Y-93635476D01*
X135448095Y-93587857D01*
X135495714Y-93492619D01*
X135543333Y-93445000D01*
X135638571Y-93397380D01*
X135829047Y-93397380D01*
X135924285Y-93445000D01*
X135971904Y-93492619D01*
X136019523Y-93587857D01*
X136019523Y-93635476D01*
X135971904Y-93730714D01*
X135924285Y-93778333D01*
X135829047Y-93825952D01*
X135638571Y-93825952D01*
X135543333Y-93873571D01*
X135495714Y-93921190D01*
X135448095Y-94016428D01*
X135448095Y-94206904D01*
X135495714Y-94302142D01*
X135543333Y-94349761D01*
X135638571Y-94397380D01*
X135829047Y-94397380D01*
X135924285Y-94349761D01*
X135971904Y-94302142D01*
X136019523Y-94206904D01*
X136019523Y-94016428D01*
X135971904Y-93921190D01*
X135924285Y-93873571D01*
X135829047Y-93825952D01*
X132647380Y-125433333D02*
X133361666Y-125433333D01*
X133504523Y-125480952D01*
X133599761Y-125576190D01*
X133647380Y-125719047D01*
X133647380Y-125814285D01*
X132647380Y-125052380D02*
X132647380Y-124433333D01*
X133028333Y-124766666D01*
X133028333Y-124623809D01*
X133075952Y-124528571D01*
X133123571Y-124480952D01*
X133218809Y-124433333D01*
X133456904Y-124433333D01*
X133552142Y-124480952D01*
X133599761Y-124528571D01*
X133647380Y-124623809D01*
X133647380Y-124909523D01*
X133599761Y-125004761D01*
X133552142Y-125052380D01*
X144948095Y-93397380D02*
X144948095Y-94206904D01*
X144995714Y-94302142D01*
X145043333Y-94349761D01*
X145138571Y-94397380D01*
X145329047Y-94397380D01*
X145424285Y-94349761D01*
X145471904Y-94302142D01*
X145519523Y-94206904D01*
X145519523Y-93397380D01*
X146424285Y-93397380D02*
X146233809Y-93397380D01*
X146138571Y-93445000D01*
X146090952Y-93492619D01*
X145995714Y-93635476D01*
X145948095Y-93825952D01*
X145948095Y-94206904D01*
X145995714Y-94302142D01*
X146043333Y-94349761D01*
X146138571Y-94397380D01*
X146329047Y-94397380D01*
X146424285Y-94349761D01*
X146471904Y-94302142D01*
X146519523Y-94206904D01*
X146519523Y-93968809D01*
X146471904Y-93873571D01*
X146424285Y-93825952D01*
X146329047Y-93778333D01*
X146138571Y-93778333D01*
X146043333Y-93825952D01*
X145995714Y-93873571D01*
X145948095Y-93968809D01*
X134448095Y-84697380D02*
X134448095Y-85506904D01*
X134495714Y-85602142D01*
X134543333Y-85649761D01*
X134638571Y-85697380D01*
X134829047Y-85697380D01*
X134924285Y-85649761D01*
X134971904Y-85602142D01*
X135019523Y-85506904D01*
X135019523Y-84697380D01*
X135971904Y-84697380D02*
X135495714Y-84697380D01*
X135448095Y-85173571D01*
X135495714Y-85125952D01*
X135590952Y-85078333D01*
X135829047Y-85078333D01*
X135924285Y-85125952D01*
X135971904Y-85173571D01*
X136019523Y-85268809D01*
X136019523Y-85506904D01*
X135971904Y-85602142D01*
X135924285Y-85649761D01*
X135829047Y-85697380D01*
X135590952Y-85697380D01*
X135495714Y-85649761D01*
X135448095Y-85602142D01*
X132547380Y-75033333D02*
X133261666Y-75033333D01*
X133404523Y-75080952D01*
X133499761Y-75176190D01*
X133547380Y-75319047D01*
X133547380Y-75414285D01*
X133547380Y-74033333D02*
X133547380Y-74604761D01*
X133547380Y-74319047D02*
X132547380Y-74319047D01*
X132690238Y-74414285D01*
X132785476Y-74509523D01*
X132833095Y-74604761D01*
X134448095Y-75997380D02*
X134448095Y-76806904D01*
X134495714Y-76902142D01*
X134543333Y-76949761D01*
X134638571Y-76997380D01*
X134829047Y-76997380D01*
X134924285Y-76949761D01*
X134971904Y-76902142D01*
X135019523Y-76806904D01*
X135019523Y-75997380D01*
X135400476Y-75997380D02*
X136019523Y-75997380D01*
X135686190Y-76378333D01*
X135829047Y-76378333D01*
X135924285Y-76425952D01*
X135971904Y-76473571D01*
X136019523Y-76568809D01*
X136019523Y-76806904D01*
X135971904Y-76902142D01*
X135924285Y-76949761D01*
X135829047Y-76997380D01*
X135543333Y-76997380D01*
X135448095Y-76949761D01*
X135400476Y-76902142D01*
D11*
X148360000Y-94010000D02*
X148360000Y-86270000D01*
X143060000Y-94010000D02*
X148360000Y-94010000D01*
X143060000Y-86270000D02*
X143060000Y-94010000D01*
X148360000Y-86270000D02*
X146710000Y-86270000D01*
X144710000Y-86270000D02*
X143060000Y-86270000D01*
X144710000Y-86270000D02*
G75*
G03*
X146710000Y-86270000I1000000J0D01*
G01*
X150835000Y-133905000D02*
X150835000Y-131245000D01*
X130395000Y-132575000D02*
X130395000Y-131245000D01*
X130395000Y-131245000D02*
X131725000Y-131245000D01*
X132995000Y-133905000D02*
X132995000Y-131245000D01*
X132995000Y-131245000D02*
X150835000Y-131245000D01*
X132995000Y-133905000D02*
X150835000Y-133905000D01*
X148360000Y-111485000D02*
X148360000Y-103745000D01*
X143060000Y-103745000D02*
X143060000Y-111485000D01*
X144710000Y-103745000D02*
X143060000Y-103745000D01*
X148360000Y-103745000D02*
X146710000Y-103745000D01*
X143060000Y-111485000D02*
X148360000Y-111485000D01*
X144710000Y-103745000D02*
G75*
G03*
X146710000Y-103745000I1000000J0D01*
G01*
X132560000Y-111485000D02*
X137860000Y-111485000D01*
X132560000Y-103745000D02*
X132560000Y-111485000D01*
X134210000Y-103745000D02*
X132560000Y-103745000D01*
X137860000Y-103745000D02*
X136210000Y-103745000D01*
X137860000Y-111485000D02*
X137860000Y-103745000D01*
X134210000Y-103745000D02*
G75*
G03*
X136210000Y-103745000I1000000J0D01*
G01*
X147380000Y-128900000D02*
X144070000Y-128900000D01*
X144070000Y-127530000D02*
X137530000Y-127530000D01*
X137530000Y-127530000D02*
X137530000Y-130270000D01*
X134220000Y-128900000D02*
X137530000Y-128900000D01*
X144070000Y-130270000D02*
X144070000Y-127530000D01*
X137530000Y-130270000D02*
X144070000Y-130270000D01*
X143060000Y-77545000D02*
X143060000Y-85285000D01*
X148360000Y-77545000D02*
X146710000Y-77545000D01*
X143060000Y-85285000D02*
X148360000Y-85285000D01*
X148360000Y-85285000D02*
X148360000Y-77545000D01*
X144710000Y-77545000D02*
X143060000Y-77545000D01*
X144710000Y-77545000D02*
G75*
G03*
X146710000Y-77545000I1000000J0D01*
G01*
X137860000Y-102685000D02*
X137860000Y-94945000D01*
X132560000Y-102685000D02*
X137860000Y-102685000D01*
X137860000Y-94945000D02*
X136210000Y-94945000D01*
X132560000Y-94945000D02*
X132560000Y-102685000D01*
X134210000Y-94945000D02*
X132560000Y-94945000D01*
X134210000Y-94945000D02*
G75*
G03*
X136210000Y-94945000I1000000J0D01*
G01*
X135525000Y-126430000D02*
X134195000Y-126430000D01*
X134195000Y-126430000D02*
X134195000Y-125100000D01*
X136795000Y-126430000D02*
X147015000Y-126430000D01*
X147015000Y-126430000D02*
X147015000Y-123770000D01*
X136795000Y-126430000D02*
X136795000Y-123770000D01*
X136795000Y-123770000D02*
X147015000Y-123770000D01*
X148360000Y-94945000D02*
X146710000Y-94945000D01*
X143060000Y-94945000D02*
X143060000Y-102685000D01*
X144710000Y-94945000D02*
X143060000Y-94945000D01*
X148360000Y-102685000D02*
X148360000Y-94945000D01*
X143060000Y-102685000D02*
X148360000Y-102685000D01*
X144710000Y-94945000D02*
G75*
G03*
X146710000Y-94945000I1000000J0D01*
G01*
X137860000Y-93985000D02*
X137860000Y-86245000D01*
X137860000Y-86245000D02*
X136210000Y-86245000D01*
X132560000Y-86245000D02*
X132560000Y-93985000D01*
X134210000Y-86245000D02*
X132560000Y-86245000D01*
X132560000Y-93985000D02*
X137860000Y-93985000D01*
X134210000Y-86245000D02*
G75*
G03*
X136210000Y-86245000I1000000J0D01*
G01*
X136695000Y-73370000D02*
X146915000Y-73370000D01*
X135425000Y-76030000D02*
X134095000Y-76030000D01*
X134095000Y-76030000D02*
X134095000Y-74700000D01*
X136695000Y-76030000D02*
X146915000Y-76030000D01*
X136695000Y-76030000D02*
X136695000Y-73370000D01*
X146915000Y-76030000D02*
X146915000Y-73370000D01*
X151030000Y-115660000D02*
X130590000Y-115660000D01*
X130590000Y-115660000D02*
X130590000Y-120960000D01*
X151030000Y-120960000D02*
X151030000Y-119310000D01*
X130590000Y-120960000D02*
X151030000Y-120960000D01*
X151030000Y-117310000D02*
X151030000Y-115660000D01*
X151030000Y-117310000D02*
G75*
G03*
X151030000Y-119310000I0J-1000000D01*
G01*
X137860000Y-85285000D02*
X137860000Y-77545000D01*
X137860000Y-77545000D02*
X136210000Y-77545000D01*
X132560000Y-77545000D02*
X132560000Y-85285000D01*
X134210000Y-77545000D02*
X132560000Y-77545000D01*
X132560000Y-85285000D02*
X137860000Y-85285000D01*
X134210000Y-77545000D02*
G75*
G03*
X136210000Y-77545000I1000000J0D01*
G01*
%LPC*%
D12*
X141900000Y-87600000D03*
D13*
X141900000Y-90140000D03*
X141900000Y-92680000D03*
X149520000Y-92680000D03*
X149520000Y-90140000D03*
X149520000Y-87600000D03*
D14*
X131725000Y-132575000D03*
D15*
X134265000Y-132575000D03*
X136805000Y-132575000D03*
X139345000Y-132575000D03*
X141885000Y-132575000D03*
X144425000Y-132575000D03*
X146965000Y-132575000D03*
X149505000Y-132575000D03*
D12*
X141900000Y-105075000D03*
D13*
X141900000Y-107615000D03*
X141900000Y-110155000D03*
X149520000Y-110155000D03*
X149520000Y-107615000D03*
X149520000Y-105075000D03*
D12*
X131400000Y-105075000D03*
D13*
X131400000Y-107615000D03*
X131400000Y-110155000D03*
X139020000Y-110155000D03*
X139020000Y-107615000D03*
X139020000Y-105075000D03*
D16*
X133180000Y-128900000D03*
D13*
X148420000Y-128900000D03*
D12*
X141900000Y-78875000D03*
D13*
X141900000Y-81415000D03*
X141900000Y-83955000D03*
X149520000Y-83955000D03*
X149520000Y-81415000D03*
X149520000Y-78875000D03*
D12*
X131400000Y-96275000D03*
D13*
X131400000Y-98815000D03*
X131400000Y-101355000D03*
X139020000Y-101355000D03*
X139020000Y-98815000D03*
X139020000Y-96275000D03*
D14*
X135525000Y-125100000D03*
D15*
X138065000Y-125100000D03*
X140605000Y-125100000D03*
X143145000Y-125100000D03*
X145685000Y-125100000D03*
D12*
X141900000Y-96275000D03*
D13*
X141900000Y-98815000D03*
X141900000Y-101355000D03*
X149520000Y-101355000D03*
X149520000Y-98815000D03*
X149520000Y-96275000D03*
D12*
X131400000Y-87575000D03*
D13*
X131400000Y-90115000D03*
X131400000Y-92655000D03*
X139020000Y-92655000D03*
X139020000Y-90115000D03*
X139020000Y-87575000D03*
D14*
X135425000Y-74700000D03*
D15*
X137965000Y-74700000D03*
X140505000Y-74700000D03*
X143045000Y-74700000D03*
X145585000Y-74700000D03*
D12*
X149700000Y-114500000D03*
D13*
X147160000Y-114500000D03*
X144620000Y-114500000D03*
X142080000Y-114500000D03*
X139540000Y-114500000D03*
X137000000Y-114500000D03*
X134460000Y-114500000D03*
X131920000Y-114500000D03*
X131920000Y-122120000D03*
X134460000Y-122120000D03*
X137000000Y-122120000D03*
X139540000Y-122120000D03*
X142080000Y-122120000D03*
X144620000Y-122120000D03*
X147160000Y-122120000D03*
X149700000Y-122120000D03*
D12*
X131400000Y-78875000D03*
D13*
X131400000Y-81415000D03*
X131400000Y-83955000D03*
X139020000Y-83955000D03*
X139020000Y-81415000D03*
X139020000Y-78875000D03*
M02*
